<svg width="135" height="48" viewBox="0 0 135 48" fill="none" xmlns="http://www.w3.org/2000/svg">
<path fill-rule="evenodd" clip-rule="evenodd" d="M17.43 5C7.79992 5 0 12.7999 0 22.43C0 30.1428 4.98934 36.6572 11.9178 38.9667C12.7893 39.1192 13.1161 38.5963 13.1161 38.1388C13.1161 37.7248 13.0943 36.3522 13.0943 34.8924C8.715 35.6986 7.58205 33.8249 7.23345 32.8444C7.03736 32.3433 6.18765 30.7964 5.44687 30.3824C4.83682 30.0556 3.96532 29.2495 5.42509 29.2277C6.7977 29.2059 7.77814 30.4914 8.10495 31.0143C9.67365 33.6506 12.1792 32.9098 13.1814 32.4522C13.3339 31.3193 13.7915 30.5567 14.2926 30.121C10.4144 29.6852 6.36195 28.1819 6.36195 21.5149C6.36195 19.6194 7.03736 18.0507 8.14852 16.8306C7.97422 16.3949 7.36417 14.6083 8.32282 12.2117C8.32282 12.2117 9.78259 11.7541 13.1161 13.9982C14.5105 13.6061 15.992 13.41 17.4736 13.41C18.9551 13.41 20.4367 13.6061 21.8311 13.9982C25.1646 11.7323 26.6243 12.2117 26.6243 12.2117C27.583 14.6083 26.9729 16.3949 26.7986 16.8306C27.9098 18.0507 28.5852 19.5976 28.5852 21.5149C28.5852 28.2037 24.5109 29.6852 20.6328 30.121C21.2646 30.6657 21.8093 31.7115 21.8093 33.3455C21.8093 35.6768 21.7875 37.5505 21.7875 38.1388C21.7875 38.5963 22.1143 39.141 22.9858 38.9667C26.446 37.7986 29.4527 35.5748 31.5828 32.6083C33.7129 29.6418 34.8591 26.082 34.86 22.43C34.86 12.7999 27.0601 5 17.43 5Z" fill="white"/>
<path d="M81.2559 30.8429H81.2153C81.2336 30.8429 81.2458 30.8632 81.2641 30.8653H81.2763L81.2559 30.8449V30.8429ZM81.2641 30.8653C81.075 30.8673 80.5991 30.967 80.0968 30.967C78.5107 30.967 77.9617 30.2349 77.9617 29.2792V22.9123H81.1949C81.3779 22.9123 81.5203 22.7496 81.5203 22.5259V19.069C81.5203 18.8859 81.3576 18.7233 81.1949 18.7233H77.9617V14.4326C77.9617 14.2699 77.86 14.1682 77.677 14.1682H73.2846C73.1016 14.1682 72.9999 14.2699 72.9999 14.4326V18.8453C72.9999 18.8453 70.7834 19.3943 70.6411 19.4146C70.4784 19.4553 70.3767 19.5977 70.3767 19.7603V22.5259C70.3767 22.7496 70.5394 22.9123 70.7224 22.9123H72.9796V29.5821C72.9796 34.5439 76.4365 35.0523 78.7954 35.0523C79.8732 35.0523 81.1746 34.7066 81.3779 34.6049C81.5 34.5642 81.561 34.4219 81.561 34.2795V31.2293C81.5638 31.1428 81.5353 31.0581 81.4808 30.9909C81.4262 30.9237 81.3493 30.8784 81.2641 30.8632V30.8653ZM129.45 26.3896C129.45 22.7089 127.965 22.2209 126.399 22.3836C125.179 22.4649 124.203 23.0749 124.203 23.0749V30.2329C124.203 30.2329 125.2 30.9243 126.684 30.9649C128.779 31.0259 129.45 30.2735 129.45 26.3896ZM134.391 26.0642C134.391 33.0391 132.134 35.0319 128.189 35.0319C124.854 35.0319 123.064 33.3441 123.064 33.3441C123.064 33.3441 122.983 34.2795 122.881 34.4015C122.82 34.5235 122.719 34.5642 122.597 34.5642H119.587C119.384 34.5642 119.201 34.4015 119.201 34.2185L119.242 11.6263C119.242 11.4433 119.404 11.2807 119.587 11.2807H123.919C124.102 11.2807 124.264 11.4433 124.264 11.6263V19.2926C124.264 19.2926 125.932 18.2149 128.372 18.2149L128.352 18.1742C130.792 18.1742 134.391 19.0893 134.391 26.0642ZM116.659 18.7233H112.389C112.165 18.7233 112.043 18.8859 112.043 19.1096V30.1719C112.043 30.1719 110.924 30.9649 109.399 30.9649C107.874 30.9649 107.427 30.2735 107.427 28.7484V19.0893C107.427 18.9063 107.264 18.7436 107.081 18.7436H102.729C102.546 18.7436 102.384 18.9063 102.384 19.0893V29.4805C102.384 33.9542 104.885 35.0726 108.322 35.0726C111.148 35.0726 113.446 33.5068 113.446 33.5068C113.446 33.5068 113.548 34.2999 113.609 34.4219C113.649 34.5235 113.792 34.6049 113.934 34.6049H116.659C116.883 34.6049 117.005 34.4422 117.005 34.2592L117.045 19.069C117.045 18.8859 116.883 18.7233 116.659 18.7233ZM68.4652 18.7029H64.1339C63.9509 18.7029 63.7882 18.8859 63.7882 19.1096V34.0355C63.7882 34.4422 64.0525 34.5846 64.3982 34.5846H68.3025C68.7092 34.5846 68.8109 34.4015 68.8109 34.0355V19.0486C68.8109 18.8656 68.6482 18.7029 68.4652 18.7029ZM66.33 11.8297C64.7643 11.8297 63.5238 13.0701 63.5238 14.6359C63.5238 16.2017 64.7643 17.4422 66.33 17.4422C67.8552 17.4422 69.0956 16.2017 69.0956 14.6359C69.0956 13.0701 67.8552 11.8297 66.33 11.8297ZM99.8625 11.3213H95.5718C95.3888 11.3213 95.2261 11.484 95.2261 11.667V19.984H88.4952V11.667C88.4952 11.484 88.3325 11.3213 88.1495 11.3213H83.8182C83.6351 11.3213 83.4725 11.484 83.4725 11.667V34.2592C83.4725 34.4422 83.6555 34.6049 83.8182 34.6049H88.1495C88.3325 34.6049 88.4952 34.4422 88.4952 34.2592V24.6001H95.2261L95.1854 34.2592C95.1854 34.4422 95.3481 34.6049 95.5311 34.6049H99.8625C100.045 34.6049 100.208 34.4422 100.208 34.2592V11.667C100.208 11.484 100.045 11.3213 99.8625 11.3213ZM61.4903 21.3261V32.9984C61.4903 33.0798 61.47 33.2221 61.3683 33.2628C61.3683 33.2628 58.8264 35.0726 54.6374 35.0726C49.574 35.0726 43.5752 33.4865 43.5752 23.0343C43.5752 12.5821 48.8216 10.4266 53.946 10.4469C58.3791 10.4469 60.1685 11.4433 60.4532 11.6263C60.5346 11.728 60.5752 11.8094 60.5752 11.911L59.7212 15.5307C59.7212 15.7137 59.5382 15.9374 59.3145 15.8764C58.5824 15.6527 57.4843 15.2053 54.9018 15.2053C51.9125 15.2053 48.6996 16.0594 48.6996 22.7903C48.6996 29.5211 51.7499 30.3142 53.946 30.3142C55.8169 30.3142 56.4879 30.0905 56.4879 30.0905V25.4135H53.4987C53.275 25.4135 53.1123 25.2508 53.1123 25.0678V21.3261C53.1123 21.1431 53.275 20.9804 53.4987 20.9804H61.104C61.3276 20.9804 61.4903 21.1431 61.4903 21.3261Z" fill="white"/>
</svg>
