<svg width="171" height="48" viewBox="0 0 171 48" fill="none" xmlns="http://www.w3.org/2000/svg">
<path d="M36.1119 10.8223C33.3524 9.53122 30.4018 8.59289 27.317 8.05859C26.9381 8.74354 26.4955 9.66481 26.1903 10.3977C22.9111 9.90452 19.6621 9.90452 16.4431 10.3977C16.138 9.66481 15.6854 8.74354 15.3031 8.05859C12.215 8.59289 9.261 9.53467 6.50146 10.8292C0.935455 19.2401 -0.573397 27.4422 0.181031 35.5278C3.8727 38.2846 7.45037 39.9593 10.9677 41.0552C11.8361 39.86 12.6106 38.5894 13.2779 37.2504C12.0071 36.7675 10.79 36.1716 9.63991 35.4799C9.94501 35.2538 10.2434 35.0175 10.5318 34.7743C17.5463 38.0552 25.1677 38.0552 32.0984 34.7743C32.3901 35.0175 32.6885 35.2538 32.9902 35.4799C31.8368 36.175 30.6163 36.7709 29.3456 37.2538C30.0128 38.5894 30.784 39.8634 31.6558 41.0586C35.1764 39.9627 38.7574 38.2881 42.4491 35.5278C43.3343 26.1545 40.9369 18.0278 36.1119 10.8223ZM14.2335 30.5552C12.1278 30.5552 10.401 28.5894 10.401 26.1956C10.401 23.8018 12.091 21.8326 14.2335 21.8326C16.3761 21.8326 18.1029 23.7983 18.066 26.1956C18.0693 28.5894 16.3761 30.5552 14.2335 30.5552ZM28.3966 30.5552C26.291 30.5552 24.5641 28.5894 24.5641 26.1956C24.5641 23.8018 26.254 21.8326 28.3966 21.8326C30.5392 21.8326 32.266 23.7983 32.2291 26.1956C32.2291 28.5894 30.5392 30.5552 28.3966 30.5552Z" fill="white"/>
<path d="M57.2861 16.4771H66.4396C68.6462 16.4771 70.5104 16.8298 72.0397 17.5319C73.5649 18.2339 74.7085 19.2133 75.4664 20.4668C76.2238 21.7202 76.606 23.1551 76.606 24.7716C76.606 26.3537 76.2104 27.7887 75.4191 29.0729C74.6279 30.3606 73.4241 31.3777 71.8048 32.1277C70.1855 32.8777 68.1799 33.2544 65.7828 33.2544H57.2861V16.4771ZM65.6887 28.9907C67.1742 28.9907 68.3178 28.6106 69.1155 27.8537C69.9137 27.0935 70.3128 26.0592 70.3128 24.7476C70.3128 23.5318 69.957 22.5626 69.2464 21.8366C68.5358 21.1106 67.4593 20.7442 66.0206 20.7442H63.1572V28.9907H65.6887Z" fill="white"/>
<path d="M90.3096 33.2341C89.0421 32.8985 87.8985 32.4121 86.8828 31.7717V27.7923C87.6507 28.3984 88.6798 28.8985 89.9706 29.2923C91.2615 29.6827 92.5092 29.8779 93.7159 29.8779C94.2792 29.8779 94.7053 29.8026 94.9934 29.6518C95.282 29.5012 95.4264 29.3197 95.4264 29.1108C95.4264 28.8711 95.3492 28.6724 95.1915 28.5114C95.0337 28.3505 94.7286 28.2169 94.2763 28.1039L91.4596 27.4566C89.8468 27.0731 88.7031 26.5423 88.0229 25.8608C87.3421 25.1827 87.0032 24.2922 87.0032 23.1895C87.0032 22.2614 87.2983 21.4567 87.8955 20.7683C88.4887 20.08 89.3337 19.5491 90.43 19.1758C91.5268 18.7991 92.8072 18.6108 94.2793 18.6108C95.5935 18.6108 96.7973 18.7546 97.8942 19.0423C98.9905 19.33 99.8957 19.6964 100.617 20.145V23.9087C99.8787 23.4601 99.0337 23.1074 98.0683 22.8402C97.1059 22.5765 96.1171 22.4464 95.0974 22.4464C93.6253 22.4464 92.8914 22.7032 92.8914 23.2135C92.8914 23.4533 93.0053 23.6313 93.2332 23.7512C93.4611 23.871 93.8801 23.9943 94.4873 24.1245L96.8341 24.556C98.3669 24.8265 99.51 25.3026 100.261 25.9806C101.012 26.6587 101.388 27.6622 101.388 28.9909C101.388 30.4464 100.768 31.6005 99.5234 32.4567C98.2793 33.3128 96.5157 33.7409 94.229 33.7409C92.8843 33.7375 91.5771 33.5697 90.3096 33.2341Z" fill="white"/>
<path d="M106.928 32.7303C105.584 32.059 104.568 31.1481 103.89 29.9974C103.213 28.8467 102.871 27.5522 102.871 26.1138C102.871 24.6755 103.223 23.3878 103.927 22.2542C104.631 21.1207 105.664 20.2303 107.025 19.583C108.386 18.9357 110.013 18.6138 111.907 18.6138C114.254 18.6138 116.202 19.1173 117.752 20.1241V24.5111C117.205 24.1275 116.568 23.8159 115.84 23.5761C115.113 23.3364 114.335 23.2165 113.503 23.2165C112.048 23.2165 110.912 23.4871 110.09 24.0316C109.268 24.5761 108.856 25.285 108.856 26.1652C108.856 27.0282 109.255 27.7337 110.053 28.2885C110.851 28.8398 112.008 29.1173 113.527 29.1173C114.308 29.1173 115.079 29.0008 115.84 28.7714C116.598 28.5385 117.252 28.2542 117.798 27.9186V32.1617C116.079 33.2165 114.083 33.7439 111.813 33.7439C109.902 33.7371 108.272 33.4015 106.928 32.7303Z" fill="white"/>
<path d="M123.606 32.7307C122.251 32.0595 121.219 31.1417 120.507 29.9739C119.797 28.806 119.438 27.5047 119.438 26.0663C119.438 24.628 119.793 23.3437 120.507 22.217C121.221 21.0903 122.248 20.2067 123.596 19.5663C124.94 18.9259 126.546 18.6074 128.407 18.6074C130.268 18.6074 131.874 18.9259 133.219 19.5663C134.563 20.2067 135.59 21.0835 136.294 22.2033C136.998 23.3232 137.35 24.6074 137.35 26.0629C137.35 27.5013 136.998 28.8027 136.294 29.9704C135.59 31.1382 134.56 32.056 133.205 32.7273C131.851 33.3985 130.251 33.7341 128.404 33.7341C126.556 33.7341 124.957 33.4019 123.606 32.7307ZM130.737 28.4773C131.308 27.8951 131.596 27.1246 131.596 26.1657C131.596 25.2068 131.311 24.443 130.737 23.878C130.168 23.3095 129.389 23.0252 128.404 23.0252C127.401 23.0252 126.616 23.3095 126.043 23.878C125.473 24.4465 125.188 25.2068 125.188 26.1657C125.188 27.1246 125.473 27.8951 126.043 28.4773C126.614 29.0595 127.401 29.354 128.404 29.354C129.389 29.3506 130.168 29.0595 130.737 28.4773Z" fill="white"/>
<path d="M151.452 19.4977V24.6758C150.856 24.2751 150.084 24.0765 149.129 24.0765C147.878 24.0765 146.912 24.4635 146.241 25.2374C145.568 26.0114 145.232 27.2169 145.232 28.847V33.258H139.482V19.234H145.115V23.6929C145.427 22.0628 145.933 20.8608 146.631 20.0833C147.325 19.3094 148.223 18.9224 149.316 18.9224C150.144 18.9224 150.856 19.1142 151.452 19.4977Z" fill="white"/>
<path d="M170.558 15.9976V33.2578H164.807V30.1175C164.321 31.299 163.584 32.1996 162.591 32.816C161.598 33.4291 160.371 33.7373 158.916 33.7373C157.615 33.7373 156.482 33.4154 155.513 32.7681C154.544 32.1209 153.797 31.2339 153.27 30.1072C152.747 28.9804 152.482 27.7065 152.482 26.2819C152.465 24.8127 152.743 23.4942 153.317 22.3263C153.887 21.1585 154.695 20.2476 155.734 19.5935C156.774 18.9394 157.961 18.6106 159.292 18.6106C162.032 18.6106 163.869 19.8263 164.807 22.2544V15.9976H170.558ZM163.949 28.3812C164.536 27.799 164.828 27.0421 164.828 26.1175C164.828 25.2236 164.543 24.4941 163.973 23.9359C163.402 23.3777 162.621 23.0969 161.639 23.0969C160.67 23.0969 159.896 23.3811 159.315 23.9496C158.735 24.5182 158.447 25.2544 158.447 26.1654C158.447 27.0764 158.735 27.8195 159.315 28.3948C159.896 28.9702 160.66 29.2578 161.615 29.2578C162.584 29.2545 163.362 28.9633 163.949 28.3812Z" fill="white"/>
<path d="M81.4519 20.727C83.035 20.727 84.3189 19.5495 84.3189 18.0969C84.3189 16.6443 83.035 15.4668 81.4519 15.4668C79.8683 15.4668 78.585 16.6443 78.585 18.0969C78.585 19.5495 79.8683 20.727 81.4519 20.727Z" fill="white"/>
<path d="M78.582 22.5386C80.3386 23.3125 82.5183 23.3468 84.3153 22.5386V33.3331H78.582V22.5386Z" fill="white"/>
</svg>
