<svg width="156" height="48" viewBox="0 0 156 48" fill="none" xmlns="http://www.w3.org/2000/svg">
<path d="M12.7808 26.1909C12.7808 23.5845 10.8204 21.7526 8.41229 21.7526C6.00421 21.7526 4.0438 23.6153 4.0438 26.1909C4.0438 28.7356 6.00421 30.6293 8.41229 30.6293C10.8228 30.6269 12.7808 28.7974 12.7808 26.1909ZM12.8152 33.9486V31.9313C11.6271 33.3285 9.8586 34.1957 7.74078 34.1957C3.34031 34.1957 0 30.7813 0 26.1909C0 21.629 3.46822 18.1553 7.83917 18.1553C9.89555 18.1553 11.6297 19.0249 12.8176 20.3888V18.4333H16.768V33.9486H12.8152Z" fill="white"/>
<path d="M35.9557 30.5035C34.5733 30.5035 34.1896 30.0068 34.1896 28.7048V21.8168H36.728V18.4334H34.1896V14.6484H30.1409V18.4334H24.9262V17.4901C24.9262 16.1857 25.4404 15.6891 26.8547 15.6891H27.7427V12.6787H25.7945C22.4542 12.6787 20.88 13.7337 20.88 16.9603V18.431H18.6318V21.8144H20.88V33.9463H24.9288V21.8144H30.1433V29.4176C30.1433 32.5824 31.3954 33.9487 34.6717 33.9487H36.76V30.5035H35.9557Z" fill="white"/>
<path d="M50.4762 24.7942C50.1883 22.7769 48.4838 21.5675 46.4938 21.5675C44.5014 21.5675 42.8633 22.7461 42.4476 24.7942H50.4762ZM42.4132 27.2153C42.7034 29.5105 44.4055 30.815 46.5578 30.815C48.2599 30.815 49.5784 30.038 50.3482 28.7977H54.4929C53.5287 32.0861 50.4762 34.196 46.4619 34.196C41.6113 34.196 38.207 30.9076 38.207 26.2221C38.207 21.5367 41.8057 18.1533 46.5602 18.1533C51.3469 18.1533 54.8151 21.5676 54.8151 26.2221C54.8151 26.5643 54.7831 26.9041 54.7192 27.2153H42.4132Z" fill="white"/>
<path d="M80.5567 26.1909C80.5567 23.6771 78.5963 21.7526 76.1882 21.7526C73.7802 21.7526 71.8197 23.6153 71.8197 26.1909C71.8197 28.7356 73.7802 30.6293 76.1882 30.6293C78.5963 30.6269 80.5567 28.7048 80.5567 26.1909ZM67.835 18.4333H71.7852V20.4505C72.9733 19.0225 74.7394 18.1553 76.8597 18.1553C81.1962 18.1553 84.6005 21.6005 84.6005 26.16C84.6005 30.7219 81.1322 34.198 76.7638 34.198C74.7394 34.198 73.0693 33.4211 71.9132 32.1191V40.3329H67.835V18.4333Z" fill="white"/>
<path d="M98.8394 26.1909C98.8394 23.5845 96.8814 21.7526 94.4707 21.7526C92.0627 21.7526 90.1023 23.6153 90.1023 26.1909C90.1023 28.7356 92.0627 30.6293 94.4707 30.6293C96.8814 30.6269 98.8394 28.7974 98.8394 26.1909ZM98.874 33.9486V31.9313C97.6859 33.3285 95.9169 34.1957 93.799 34.1957C89.3988 34.1957 86.0586 30.7813 86.0586 26.1909C86.0586 21.629 89.5268 18.1553 93.8953 18.1553C95.9515 18.1553 97.6859 19.0249 98.874 20.3888V18.4333H102.825V33.9486H98.874Z" fill="white"/>
<path d="M60.714 19.9539C60.714 19.9539 61.7201 18.1553 64.1822 18.1553C65.235 18.1553 65.9164 18.5046 65.9164 18.5046V22.463C65.9164 22.463 64.4306 21.5767 63.0655 21.7549C61.7003 21.9332 60.837 23.1449 60.8419 24.7653V33.9509H56.7637V18.4357H60.714V19.9539Z" fill="white"/>
<path d="M121.274 18.4336L111.3 40.2832H107.094L111.01 31.8366L104.389 18.4336H109.156L113.03 27.3887L117.005 18.4336H121.274Z" fill="white"/>
<path d="M153.114 18.0818L143.226 12.5695C140.323 10.9515 136.695 12.9735 136.695 16.2119V16.7774C136.695 17.2883 136.977 17.7611 137.435 18.0153L139.302 19.056C139.85 19.3625 140.534 18.98 140.534 18.3693V16.9627C140.534 16.2595 141.322 15.8199 141.951 16.1715L150.516 20.9473C151.146 21.2989 151.146 22.1781 150.516 22.5274L141.951 27.3031C141.322 27.6548 140.534 27.2152 140.534 26.5119V25.7634C140.534 22.5249 136.906 20.5006 134.002 22.121L124.114 27.6333C121.211 29.2514 121.211 33.3001 124.114 34.9181L134.002 40.4305C136.904 42.0485 140.534 40.0265 140.534 36.7881V36.2226C140.534 35.7117 140.252 35.2413 139.794 34.9846L137.927 33.9416C137.379 33.6351 136.695 34.0176 136.695 34.6283V36.0349C136.695 36.7382 135.908 37.1777 135.278 36.8261L126.713 32.0503C126.084 31.6987 126.084 30.8196 126.713 30.4679L135.278 25.6921C135.908 25.3405 136.695 25.78 136.695 26.4833V27.2318C136.695 30.4703 140.323 32.4947 143.226 30.8742L153.114 25.3619C156.016 23.7486 156.016 19.6999 153.114 18.0818Z" fill="white"/>
</svg>
