<svg width="153" height="48" viewBox="0 0 153 48" fill="none" xmlns="http://www.w3.org/2000/svg">
<path d="M0.0371094 33.9912V14.008H4.57614V30.28H14.4535V33.9912H0.0371094ZM15.4482 33.9912V14.008H30.6925V17.7192H19.9873V21.9728H29.3794V25.5697H19.9873V30.28H30.7211V33.9912H15.4482ZM31.3132 33.9912L37.5366 23.9996L31.3703 14.008H36.9085L39.3921 18.6898C40.1058 19.7746 40.1914 21.0878 40.1629 22.144H41.5903C41.5617 21.0878 41.6474 19.7746 42.361 18.6898L44.8447 14.008H50.3829L44.2166 23.9997L50.44 33.9912H44.8161L42.304 29.1953C41.5617 28.0248 41.5617 26.8258 41.5903 25.7981H40.1629C40.1914 26.8258 40.1914 28.0248 39.4492 29.1953L36.9371 33.9912H31.3132ZM51.2926 14.008H55.8599V33.9912H51.2926V14.008ZM57.9739 33.9912V14.008H64.1402L72.4757 30.851H73.9032V30.5655C72.219 27.3968 71.3624 24.8561 71.3624 22.144V14.008H75.7589V33.9912H69.6783L61.1424 16.8057H59.7149V17.0912C61.2279 19.4321 62.37 22.3153 62.37 25.5697V33.9912H57.9739ZM86.4987 34.448C80.4467 34.448 77.0492 30.3942 77.0492 23.9711C77.0492 17.5765 80.9888 13.5513 87.2411 13.5513C92.7505 13.5513 96.2904 16.3204 96.7469 20.8879H91.8369C91.4942 18.8611 89.8674 17.6621 87.2411 17.6621C83.9579 17.6621 81.9023 20.0887 81.9023 23.9711C81.9023 28.0534 83.8149 30.3372 87.2411 30.3372C89.6676 30.3372 91.2944 29.024 91.7801 26.7973H87.2411V23.2859H97.0328V33.9912H93.2644C93.3786 32.8208 93.9207 31.4791 94.9203 30.223V29.9375H93.3212C92.2079 32.7922 89.8674 34.448 86.4987 34.448ZM103.806 33.9912V17.7192H97.2687V14.008H114.911V17.7192H108.374V33.9912H103.806ZM123.694 34.448C117.443 34.448 113.503 30.3942 113.503 23.9711C113.503 17.5765 117.443 13.5513 123.694 13.5513C129.975 13.5513 133.914 17.5765 133.914 23.9711C133.914 30.3942 129.975 34.448 123.694 34.448ZM118.356 23.9711C118.356 27.8535 120.412 30.3372 123.694 30.3372C127.006 30.3372 129.061 27.8535 129.061 23.9711C129.061 20.0886 127.006 17.6621 123.694 17.6621C120.412 17.6621 118.356 20.0887 118.356 23.9711ZM135.202 33.9912V14.008H141.368L149.704 30.851H151.132V30.5655C149.447 27.3968 148.591 24.8561 148.591 22.144V14.008H152.987V33.9912H146.907L138.371 16.8057H136.944V17.0912C138.457 19.4321 139.599 22.3153 139.599 25.5697V33.9912H135.202Z" fill="white"/>
</svg>
